<?xml version="1.0" standalone="no"?>
<!DOCTYPE svg PUBLIC "-//W3C//DTD SVG 20010904//EN"
 "http://www.w3.org/TR/2001/REC-SVG-20010904/DTD/svg10.dtd">
<svg version="1.0" xmlns="http://www.w3.org/2000/svg"
 width="447.000000pt" height="447.000000pt" viewBox="0 0 447.000000 447.000000"
 preserveAspectRatio="xMidYMid meet">
<metadata>
Created by potrace 1.11, written by Peter Selinger 2001-2013
</metadata>
<g transform="translate(0.000000,447.000000) scale(0.100000,-0.100000)"
fill="#000000" stroke="none">
<path d="M4369 3816 c-2 -2 -101 -7 -219 -11 l-215 -7 -58 -34 c-32 -19 -60
-34 -62 -34 -2 0 -30 -15 -62 -33 -32 -19 -83 -48 -114 -65 l-55 -31 -60 31
c-32 17 -103 57 -157 90 -72 42 -106 57 -125 54 -25 -4 -112 -13 -202 -21 -19
-2 -66 -6 -103 -10 -63 -6 -70 -5 -103 20 -19 15 -40 24 -47 22 -7 -3 -59 -39
-116 -81 -110 -80 -124 -85 -283 -106 l-88 -12 -124 -94 -125 -94 34 -75 c19
-42 35 -80 35 -84 0 -4 -23 -18 -50 -31 l-50 -24 -40 39 -39 38 -103 -7 c-57
-4 -123 -9 -148 -12 -40 -5 -58 1 -167 55 -137 67 -136 67 -363 117 -204 45
-257 50 -373 35 -184 -23 -168 -26 -260 40 -45 32 -89 59 -97 59 -8 0 -51 -11
-95 -24 l-79 -23 -73 33 c-40 18 -75 29 -77 25 -3 -5 -13 -53 -21 -107 -9 -55
-18 -110 -21 -124 -2 -14 -6 -41 -9 -60 -3 -19 -11 -72 -19 -117 -12 -76 -12
-86 6 -135 38 -102 38 -98 -3 -175 l-38 -73 26 -62 c14 -35 27 -65 30 -68 2
-3 192 -5 421 -6 l417 -2 190 -67 c105 -37 271 -95 370 -129 155 -54 202 -76
340 -158 88 -52 232 -137 320 -188 88 -52 165 -100 170 -106 6 -7 83 -104 171
-216 179 -225 160 -210 374 -298 69 -29 82 -31 155 -26 44 3 123 8 175 11 l95
6 58 -59 58 -59 -84 -64 c-85 -63 -85 -63 -92 -116 -12 -100 -56 -237 -100
-319 -61 -111 -48 -139 48 -102 26 10 55 18 63 18 8 0 48 -23 89 -50 42 -28
81 -53 89 -56 8 -3 40 28 83 78 105 125 184 202 328 320 62 51 193 135 294
188 l105 55 33 90 c54 148 132 380 142 427 12 55 20 128 26 253 6 106 14 185
22 198 6 10 5 233 -1 267 -4 24 -10 67 -21 168 -3 26 -8 58 -10 72 -3 14 -7
51 -10 83 -4 32 -8 68 -11 80 -3 12 -7 67 -11 122 -5 95 -4 105 30 210 66 203
76 236 82 268 4 23 -6 65 -39 156 -47 128 -50 134 -57 127z m-43 -75 c17 -1
68 -151 66 -196 0 -22 -26 -116 -57 -210 -60 -178 -64 -206 -45 -320 11 -68
13 -86 25 -190 4 -27 8 -66 10 -85 3 -19 7 -59 10 -89 4 -30 10 -75 15 -100 9
-47 6 -246 -4 -291 -3 -14 -8 -68 -11 -120 -11 -188 -23 -301 -40 -355 -11
-37 -105 -304 -141 -401 -13 -37 -23 -46 -97 -84 -118 -61 -263 -158 -354
-236 -89 -77 -313 -302 -313 -315 0 -18 -24 -8 -87 37 -70 50 -86 56 -121 43
-22 -9 -22 -8 -6 23 27 53 50 129 69 230 l18 96 104 77 c56 42 103 80 103 83
0 3 -44 48 -97 99 l-98 94 -65 -6 c-36 -3 -119 -8 -185 -10 l-120 -6 -120 54
-120 53 -175 218 -176 219 -104 60 c-58 33 -192 111 -298 174 -206 122 -273
156 -392 196 -247 84 -603 207 -609 211 -4 3 -188 6 -409 7 l-401 2 -12 29
c-11 27 -9 37 26 108 l38 78 -31 76 -31 76 31 193 c17 105 34 196 38 200 4 4
27 -1 51 -11 l45 -20 82 24 83 24 61 -42 c33 -24 69 -49 79 -57 19 -14 80 -16
147 -6 178 26 207 26 357 -6 55 -12 107 -22 115 -24 8 -2 38 -9 65 -15 28 -6
61 -14 75 -16 14 -3 91 -36 172 -75 139 -67 150 -71 197 -65 61 7 133 15 182
20 32 2 43 -3 88 -45 l52 -48 32 18 c18 10 62 35 99 55 l67 36 -29 68 c-17 37
-34 74 -39 83 -7 12 10 30 82 85 121 93 102 85 242 99 105 11 130 21 221 87
117 85 110 82 142 58 22 -18 35 -21 77 -16 27 4 79 9 115 12 68 5 91 8 177 20
l52 7 164 -95 c161 -94 164 -95 193 -80 16 8 99 54 185 103 l157 89 163 6 c90
4 165 8 167 9 2 2 11 2 20 0 9 -2 22 -4 28 -4z"/>
<path d="M2693 3284 c-77 -16 -189 -74 -252 -130 -35 -32 -57 -43 -86 -46
l-39 -3 1 -60 c0 -33 -6 -78 -14 -100 -35 -94 -48 -220 -30 -295 13 -53 21
-77 31 -89 7 -9 11 -78 12 -190 l1 -176 492 -3 491 -2 0 160 c0 130 4 172 19
218 30 90 33 112 32 195 -1 53 -9 102 -26 154 -15 45 -25 99 -25 134 0 33 -3
58 -7 58 -45 -7 -76 5 -119 45 -120 113 -312 165 -481 130z m247 -34 c80 -21
245 -119 228 -135 -3 -3 -145 -6 -314 -6 -459 0 -419 -2 -403 17 39 47 178
118 256 130 21 3 40 7 42 9 7 8 148 -3 191 -15z m-570 -174 c0 -2 -7 -9 -15
-16 -13 -11 -14 -10 -9 4 5 14 24 23 24 12z m420 -6 c0 -6 -5 -10 -11 -10 -6
0 -9 -19 -8 -47 3 -53 7 -51 -71 -37 -19 3 -42 10 -50 14 -8 4 -66 24 -127 45
-62 20 -113 38 -113 39 0 2 86 4 190 4 117 1 190 -2 190 -8z m405 0 c-4 -6
-60 -25 -299 -100 -39 -13 -46 -6 -46 44 0 23 -5 47 -11 53 -9 9 36 11 174 11
103 0 185 -4 182 -8z m75 -5 c0 -8 -2 -15 -4 -15 -2 0 -6 7 -10 15 -3 8 -1 15
4 15 6 0 10 -7 10 -15z m-856 -11 c8 -3 12 -12 9 -19 -3 -10 9 -18 41 -26 25
-6 46 -15 46 -18 0 -10 65 -41 129 -61 53 -17 56 -19 77 -76 27 -72 23 -120
-17 -215 -16 -38 -29 -74 -29 -81 0 -8 -13 -32 -29 -54 -16 -21 -41 -70 -56
-107 -27 -67 -28 -68 -59 -62 -37 7 -159 129 -173 172 -5 16 -8 129 -8 253 1
215 3 227 24 263 13 20 24 37 26 37 2 0 10 -3 19 -6z m834 -30 c22 -34 23 -42
23 -270 l0 -235 -30 -47 c-37 -58 -112 -132 -137 -136 -32 -6 -53 13 -65 56
-6 23 -28 71 -50 107 -21 36 -39 70 -39 75 0 6 -14 40 -30 74 -35 75 -39 139
-13 213 16 45 21 50 68 65 27 9 77 31 110 49 33 18 75 36 93 40 22 4 32 12 28
20 -5 13 2 25 13 25 3 0 16 -16 29 -36z m67 -194 c10 -76 8 -156 -2 -175 -5
-7 -9 45 -10 117 -1 72 -1 129 1 127 2 -2 7 -33 11 -69z m-998 -82 c0 -101 -3
-135 -9 -118 -17 44 -12 260 6 260 2 0 3 -64 3 -142z m607 -266 c53 -78 96
-149 96 -156 0 -8 3 -21 6 -29 4 -11 -8 -19 -43 -30 -114 -37 -219 -39 -326
-7 -65 20 -67 22 -61 48 3 15 18 45 33 66 36 53 104 160 143 223 26 41 35 50
44 40 7 -6 55 -76 108 -155z m-549 -59 c50 -75 159 -153 275 -196 8 -3 -57 -6
-145 -6 l-160 -1 0 115 c0 63 3 115 6 115 4 0 15 -12 24 -27z m896 -160 l-3
-43 -167 1 -166 0 50 17 c86 29 160 78 221 147 l59 65 5 -72 c3 -40 3 -92 1
-115z"/>
<path d="M1090 3033 c-74 -11 -111 -50 -105 -107 6 -48 24 -72 76 -101 33 -17
49 -33 49 -46 0 -24 -26 -28 -87 -15 -24 6 -33 4 -33 -6 0 -7 -3 -23 -6 -35
-5 -19 -1 -23 33 -29 21 -4 46 -7 56 -7 9 0 30 1 46 2 17 1 42 13 60 30 24 23
31 37 31 68 0 51 -18 74 -85 112 -30 17 -55 35 -55 41 0 23 71 33 116 16 9 -4
14 3 16 19 0 14 1 30 2 37 1 6 -10 13 -24 14 -14 2 -34 5 -45 7 -11 2 -31 2
-45 0z"/>
<path d="M1261 2860 l-2 -170 44 0 45 0 2 143 c0 78 2 154 4 170 3 26 2 27
-44 27 l-47 0 -2 -170z"/>
<path d="M1410 2860 l0 -170 41 0 41 0 -4 114 c-2 63 -1 112 2 109 3 -2 30
-53 60 -111 l55 -107 53 -3 52 -3 0 170 0 171 -41 0 -40 0 3 -109 c2 -60 0
-107 -4 -105 -4 3 -31 52 -60 109 l-53 105 -52 0 -53 0 0 -170z"/>
<path d="M1778 3023 c-2 -5 -4 -80 -3 -168 l0 -160 80 -2 c44 -1 97 2 117 8
47 12 96 63 105 109 22 110 -18 191 -103 211 -47 10 -191 12 -196 2z m175 -78
c46 -19 55 -112 14 -152 -12 -12 -41 -25 -64 -29 l-43 -7 0 95 c0 52 2 97 6
100 7 7 64 3 87 -7z"/>
<path d="M2138 3018 c-2 -7 -4 -83 -4 -168 l1 -155 43 -3 42 -3 1 38 c0 21 1
98 3 171 l3 132 -43 0 c-25 0 -44 -5 -46 -12z"/>
<path d="M3495 2553 c-70 -15 -105 -52 -105 -110 1 -36 23 -62 83 -97 67 -40
61 -62 -15 -59 -55 2 -57 1 -63 -28 -4 -17 -5 -33 -2 -36 9 -8 124 -16 150
-10 40 11 77 55 77 94 0 50 -14 70 -75 104 -85 48 -80 77 11 66 48 -5 48 -5
58 35 6 25 3 28 -31 33 -21 4 -45 8 -53 10 -8 1 -24 1 -35 -2z"/>
<path d="M3684 2538 c-3 -5 -8 -79 -10 -163 -3 -116 -1 -154 9 -157 6 -2 59
-4 117 -4 l105 1 3 33 3 32 -53 1 c-95 2 -93 1 -96 37 l-3 32 63 1 c35 1 69 1
76 0 7 -1 12 11 12 34 l0 35 -70 0 c-39 0 -71 4 -71 10 -6 45 -7 45 69 48 l72
3 0 34 0 35 -110 -1 c-62 0 -112 -5 -116 -11z"/>
<path d="M4062 2537 c-11 -14 -132 -310 -132 -322 0 0 21 -1 46 -2 45 -1 47 0
61 37 17 41 38 50 103 40 29 -4 37 -11 46 -39 11 -33 14 -35 58 -36 39 -2 47
1 43 14 -18 60 -81 231 -100 270 -21 44 -24 46 -69 48 -27 1 -50 -3 -56 -10z
m68 -108 c6 -22 14 -47 17 -55 4 -10 -4 -14 -31 -14 -20 0 -36 4 -36 8 0 12
31 102 36 102 2 0 8 -18 14 -41z"/>
</g>
</svg>
