<svg xmlns="http://www.w3.org/2000/svg" viewBox="0 0 239.19 206.43"><defs><style>.cls-1{fill:#bfe2d2;}.cls-2{fill:#1d5949;}.cls-3{fill:#edf4f6;}.cls-4{fill:#f2b879;}.cls-5{fill:#0a6d6d;}.cls-6{fill:#19517f;}.cls-7{fill:#14a0ad;}.cls-8{fill:#19c6d8;}.cls-9{fill:#f7bd3c;}.cls-10{fill:#cc9c32;}.cls-11{fill:#0f8c91;}.cls-12{fill:#ddeff2;}.cls-13{fill:#fff;}.cls-14{fill:#eda966;}.cls-15{fill:#f7c589;}.cls-16{fill:#ea942d;}.cls-17{fill:#dfe7e8;}.cls-18{fill:#cfd1d2;}</style></defs><title>relogio</title><g id="Camada_2" data-name="Camada 2"><g id="Rodapé"><ellipse class="cls-1" cx="119.6" cy="200.51" rx="119.6" ry="5.93"/><circle class="cls-2" cx="137.18" cy="84.5" r="84.5"/><path class="cls-1" d="M207.81,84.5a70.63,70.63,0,1,1-14.64-43A70.63,70.63,0,0,1,207.81,84.5Z"/><path class="cls-3" d="M207.81,84.5A70.63,70.63,0,0,1,87.5,134.7,70.63,70.63,0,0,1,193.17,41.45,70.28,70.28,0,0,1,207.81,84.5Z"/><path class="cls-2" d="M204.45,85.76H192.68a1.26,1.26,0,1,1,0-2.52h11.77a1.26,1.26,0,0,1,0,2.52Z"/><path class="cls-2" d="M80.85,85.76H69.08a1.26,1.26,0,1,1,0-2.52H80.85a1.26,1.26,0,0,1,0,2.52Z"/><path class="cls-2" d="M137.18,30.69a1.26,1.26,0,0,1-1.26-1.26V17.66a1.26,1.26,0,1,1,2.52,0V29.43A1.26,1.26,0,0,1,137.18,30.69Z"/><path class="cls-2" d="M137.18,153.87a1.26,1.26,0,0,1-1.26-1.26V140.83a1.26,1.26,0,1,1,2.52,0V152.6A1.26,1.26,0,0,1,137.18,153.87Z"/><rect class="cls-2" x="184.08" y="53.26" width="11.77" height="0.84" transform="translate(-1.37 102.25) rotate(-30.02)"/><rect class="cls-2" x="77.04" y="115.06" width="11.77" height="0.84" transform="translate(-46.66 56.99) rotate(-30.02)"/><rect class="cls-2" x="105.91" y="25.7" width="0.84" height="11.77" transform="matrix(0.87, -0.5, 0.5, 0.87, -1.55, 57.4)"/><rect class="cls-2" x="167.5" y="132.37" width="0.84" height="11.77" transform="translate(-46.63 102.48) rotate(-30)"/><rect class="cls-2" x="161.29" y="30.69" width="11.77" height="0.84" transform="translate(56.59 160.29) rotate(-59.97)"/><rect class="cls-2" x="99.5" y="137.73" width="11.77" height="0.84" transform="translate(-66.96 160.27) rotate(-59.98)"/><rect class="cls-2" x="83.28" y="47.9" width="0.84" height="11.77" transform="translate(-4.73 99.38) rotate(-60)"/><rect class="cls-2" x="189.95" y="109.49" width="0.84" height="11.77" transform="matrix(0.5, -0.87, 0.87, 0.5, -4.73, 222.55)"/><polygon class="cls-2" points="134.67 86.03 109.64 39.32 139.7 82.97 134.67 86.03"/><polygon class="cls-2" points="135.11 80.84 171.23 65.17 139.26 88.16 135.11 80.84"/><circle class="cls-2" cx="136.7" cy="84.42" r="6.15"/><path class="cls-4" d="M56.18,82.31a1.57,1.57,0,0,0-.61-1.71,1.93,1.93,0,0,0-1.58.13,5.79,5.79,0,0,0-2.31,1.51,7.26,7.26,0,0,0-1.24,2.84,3.26,3.26,0,0,0,.09,2.78c1.45,2,2.3-.64,2.93-1.54C54.37,85,55.87,84,56.18,82.31Z"/><path class="cls-5" d="M36.77,108.35a29.81,29.81,0,0,0,4.91,5.39,3.42,3.42,0,0,0,3.59.94h0a7.41,7.41,0,0,0,2-2.13,37.67,37.67,0,0,0,5.57-12.43c1.17-6.31.78-11,1.13-14.19a6.6,6.6,0,0,0-3.87-.54S48.48,96.17,44.6,103a13,13,0,0,1-3.87,4.53C40.11,107.91,37.82,107.83,36.77,108.35Z"/><path class="cls-5" d="M35.94,107.13c.29.45.57.85.83,1.23a29.81,29.81,0,0,0,4.91,5.39,3.42,3.42,0,0,0,3.59.94h0a7.41,7.41,0,0,0,2-2.13l.59-.9a3.69,3.69,0,0,0-.16-4L44.6,103,37.7,92.75a5,5,0,0,0-4.16-2.1,4.73,4.73,0,0,0-3.26,1.75,4.89,4.89,0,0,0-1.05,1.74C28.22,97.12,31,99.45,35.94,107.13Z"/><path class="cls-6" d="M57.28,88.13c-.29.06-.13-.33-.4-.48A11.7,11.7,0,0,1,54.62,86a10.12,10.12,0,0,1-2.4-3.34,10.6,10.6,0,0,1-.59-6.52A13.44,13.44,0,0,1,54.87,70a1.24,1.24,0,0,1,1.83,1.66c-2.71,3-3.57,6.93-2.21,10a8.28,8.28,0,0,0,3.6,3.82,1.24,1.24,0,0,1,.48,1.68A3,3,0,0,1,57.28,88.13Z"/><path class="cls-7" d="M57.18,88.16a1.23,1.23,0,0,1-.87-.13A11.7,11.7,0,0,1,54,86.39,10.12,10.12,0,0,1,51.65,83a10.59,10.59,0,0,1-.59-6.52,13.44,13.44,0,0,1,3.23-6.17A1.24,1.24,0,1,1,56.13,72c-2.71,3-3.57,6.93-2.21,10a8.28,8.28,0,0,0,3.6,3.82,1.24,1.24,0,0,1-.34,2.29Z"/><path class="cls-7" d="M66.22,60.69,70.73,81c-3.06-2.29-8.66-3.37-14-2.88q-.66.06-1.32.16a20.6,20.6,0,0,0-4.32,1.07,6.6,6.6,0,0,0-.71.32,1.58,1.58,0,0,1-.38.14c-1.2.27-2.53-.93-3.28-2.79a8.19,8.19,0,0,1-.39-1.27c-.55-2.46.1-4.72,1.43-5.18l.18-.05a1.58,1.58,0,0,1,.41,0,6.6,6.6,0,0,0,.78,0,20.61,20.61,0,0,0,4.37-.85C59,68,64.27,64.34,66.22,60.69Z"/><path class="cls-8" d="M66.22,60.69l2,8.81a66.09,66.09,0,0,1-14.74,5.88l-5.69-4.8.18-.05a1.58,1.58,0,0,1,.41,0,6.6,6.6,0,0,0,.78,0,20.61,20.61,0,0,0,4.37-.85C59,68,64.27,64.34,66.22,60.69Z"/><path class="cls-6" d="M69.54,70.62c1.24,5.61,1.77,10.27,1.19,10.4S69,77.83,67.93,73.3c-.17-.71-.35-1.45-.52-2.21s-.3-1.38-.43-2c-.93-4.66-1.27-8.24-.76-8.36S68.3,65,69.54,70.62Z"/><path class="cls-9" d="M68.94,70.85a2.68,2.68,0,0,1-1,2.46c-.17-.71-.35-1.45-.52-2.21s-.3-1.38-.43-2A2.68,2.68,0,0,1,68.94,70.85Z"/><path class="cls-9" d="M53.44,75.38c-2.51.71-4.83,1.25-6.73,1.66l-.05-.14,0,0h0l0-.05-.06-.18,0-.09h0l0-.06,0-.06,0-.06v-.11l0-.06,0-.08,0-.07,0-.08v0l0-.07,0-.08c-.55-2.46.1-4.72,1.43-5.18Z"/><path class="cls-10" d="M56.72,78.14q-.66.06-1.32.16a20.6,20.6,0,0,0-4.32,1.07,6.6,6.6,0,0,0-.71.32,1.58,1.58,0,0,1-.38.14c-1.2.27-2.53-.93-3.28-2.79,1.91-.4,4.23-1,6.73-1.66Z"/><path class="cls-11" d="M28,129.62c1.4,7.24,4.07,11.65,7.19,18.08a167.26,167.26,0,0,1,6.76,16A8.34,8.34,0,0,0,46.36,159c1.1-2.79,1.5-2.86,1.32-3.77l-9.29-36.42c-.36-.14-7.13-2.69-10,1C28,120.37,26.61,122.39,28,129.62Z"/><path class="cls-11" d="M45.28,194.06l3.54.13a148.37,148.37,0,0,1-.89-36.48,5.87,5.87,0,0,0-.77-3.59A3.67,3.67,0,0,0,45,152.33c-1.14-.3-2.32.62-4,.94a4.15,4.15,0,0,0-2.36,1.5,94.52,94.52,0,0,0,6.62,39.29Z"/><polygon class="cls-1" points="45.08 196.65 51.11 195.86 48.3 192.77 44.88 193.22 45.08 196.65"/><path class="cls-5" d="M58.76,199.16c-5.15.28-7,0-7.7-.31a4.56,4.56,0,0,0-1.3-.45,2.66,2.66,0,0,0-1.29,0,2.45,2.45,0,0,0-.86.49,4,4,0,0,1-3,.53,6.69,6.69,0,0,1-.08-4.73,11.26,11.26,0,0,1,5.18-.11,11.81,11.81,0,0,1,4.79,2.27L59,198.11A.58.58,0,0,1,58.76,199.16Z"/><path class="cls-11" d="M22.85,125c-2,7.11-1.54,12.25-1.61,19.39a167.24,167.24,0,0,1-1.08,17.35,8.34,8.34,0,0,0,6-2.25c2.23-2,2.62-1.9,2.86-2.78L36.95,120c-.26-.29-5.18-5.58-9.42-3.52C27,116.76,24.81,117.95,22.85,125Z"/><path class="cls-11" d="M9.62,190.43l3.11,1.69a148.36,148.36,0,0,1,15.44-33.06,5.87,5.87,0,0,0,.91-3.56A3.67,3.67,0,0,0,28,152.95c-.89-.77-2.35-.47-4-.93a4.15,4.15,0,0,0-2.78.29A94.52,94.52,0,0,0,9.62,190.43Z"/><polygon class="cls-1" points="8.02 192.19 13.42 194.99 12.88 190.85 9.81 189.26 8.02 192.19"/><path class="cls-12" d="M20.41,110.72l.14,1.09v.1c.86,6.65,1.5,6.25,1.55,8.48a24.15,24.15,0,0,1-.26,4.13,7.14,7.14,0,0,0,5.29,8l.15,0a17.85,17.85,0,0,0,7.88.29l.57-.12a7.11,7.11,0,0,0,5.36-8.31c-.44-2.23-.72-3.74-.82-4.41a18.6,18.6,0,0,0-.49-2.32c-.11-.38-.2-.65-.24-.81a38,38,0,0,1-1.07-13.12c.15-1.07.32-1.93.44-3.1,0,0,.07-.73.1-1.46.16-3.48.25-5.49-.27-7.33a11.1,11.1,0,0,0-5.15-6.17l-.14-.07a9.86,9.86,0,0,0-6.78-.92l-.51.15a8.75,8.75,0,0,0-2.58,1.44c-.23.18-.44.36-.64.55l-.11.11a9.84,9.84,0,0,0-1.69,2.19,6.94,6.94,0,0,0-.7,1.75,41.89,41.89,0,0,0-1,5.27C19.16,98.95,19.19,101.16,20.41,110.72Z"/><path class="cls-13" d="M25.76,84.92c1,1.3,2.05,2.65,3.21,4,1.46,1.72,2.9,3.3,4.3,4.74l.18-8.17a9.43,9.43,0,0,0-2.69-1A9.69,9.69,0,0,0,25.76,84.92Z"/><path class="cls-4" d="M34.56,78.32a28.45,28.45,0,0,0-.95,3.83q-.07.41-.13.8a28.47,28.47,0,0,0-.28,3.43,4.91,4.91,0,0,1-4.1.52,4.75,4.75,0,0,1-2.54-2.16,11.52,11.52,0,0,0,2.87-6.88l.62.05Z"/><path class="cls-14" d="M34.56,78.32a28.45,28.45,0,0,0-.95,3.83q-.07.41-.13.8a4.4,4.4,0,0,1-1.24-.7A5.23,5.23,0,0,1,30,78.86a4,4,0,0,1,0-.94Z"/><path class="cls-15" d="M37.2,76.24c-.54.89,0,2.13-.46,3.07a2.71,2.71,0,0,1-2.54,1.1,5.23,5.23,0,0,1-3.81-1.35,6.39,6.39,0,0,1-1.3-2.54c-.49-1.55-.88-3.29-.15-4.75a4.48,4.48,0,0,1,3.44-2.23c1.61-.22,3.54.39,4.07,2.07.19.62.21,1.28.42,1.9C37.27,74.69,37.89,75.1,37.2,76.24Z"/><path class="cls-16" d="M30.67,81.26A14.21,14.21,0,0,0,29,81l-.9-.06a3.92,3.92,0,0,0,.23-2C28.09,77.57,27,77.12,26,75.47a9.22,9.22,0,0,1-1-2.27,4.39,4.39,0,0,1,.58-4.52,4.28,4.28,0,0,1,2.77-1.24c1.36-.13,1.92.42,3.18.57a6.56,6.56,0,0,0,4.29-1.17,5.16,5.16,0,0,1,0,3.77,5.51,5.51,0,0,1-4,3c-1.2.22-2.11-.1-2.51.5a1.42,1.42,0,0,0,.1,1.5c.38.53,1,.45,1.34.72C31.39,76.75,31.66,77.94,30.67,81.26Z"/><path class="cls-17" d="M20.41,110.72l5.71-14.11c1.6-3.95.21-8.23-3.09-9.57L22.84,87a10,10,0,0,0-2.2,3.21,41.89,41.89,0,0,0-1.16,6C19.16,98.95,19.19,101.16,20.41,110.72Z"/><path class="cls-15" d="M16.08,140.23a4.75,4.75,0,0,0,1-5.61l-3.16.56a19.45,19.45,0,0,1-.08,2c-.25,2.64-.9,3.75-.42,4.14S15.32,140.94,16.08,140.23Z"/><path class="cls-11" d="M13.9,136A42.33,42.33,0,0,1,8.51,122.2c-.3-1.49-3-15.29,1.88-17.83,1.82-.94,4.7-.33,5.77,1.21.94,1.36.3,3.21,0,4.45-2.32,8.9.78,21.48,1.49,24.76a.68.68,0,0,1-.59.82Z"/><path class="cls-11" d="M10.33,111.37l2.35.39a4,4,0,0,0,3.83-1.88l9.12-13.59c2.37-3.54,1.9-8-1.06-10h0a3.4,3.4,0,0,0-4.41,1,74.67,74.67,0,0,0-7.73,10.91,73.87,73.87,0,0,0-4.21,8.44C7.3,108.79,8.3,111,10.33,111.37Z"/><path class="cls-11" d="M18.59,201.35c-4.67-2.18-6.23-3.3-6.64-3.91a4.56,4.56,0,0,0-.94-1,2.66,2.66,0,0,0-1.15-.59,2.45,2.45,0,0,0-1,0,4,4,0,0,1-2.91-1,6.69,6.69,0,0,1,2.16-4.21,11.26,11.26,0,0,1,4.62,2.35,11.81,11.81,0,0,1,3.15,4.26l3.42,3.22A.58.58,0,0,1,18.59,201.35Z"/><path id="_Caminho_" data-name="&lt;Caminho&gt;" class="cls-18" d="M224.22,126.6a12.71,12.71,0,0,1,.06,1.6c0,.54,0,1.07-.09,1.6a23.5,23.5,0,0,1-.54,3.17,24.15,24.15,0,0,1-1,3.08c-.1.25-.2.5-.31.75l-.33.74c-.24.49-.48,1-.75,1.44l-.2.35-.21.35c-.15.23-.28.46-.44.69l-.47.67c-.16.22-.33.43-.5.65a17.88,17.88,0,0,1-2.25,2.37l-.31.27-.32.25-.64.5-.67.46-.34.22-.35.2-.71.39-.73.34-.37.16-.38.14-.76.26.62-.5.31-.24.3-.25.6-.5.58-.52.29-.26.28-.27.55-.54c.35-.38.71-.73,1-1.13s.66-.78,1-1.17c.16-.2.3-.41.46-.61l.23-.3.22-.31c.14-.21.3-.41.43-.62l.41-.64c.14-.21.27-.43.4-.65l.2-.33.19-.33c.26-.44.49-.89.73-1.34l.34-.68.33-.69c.43-.93.82-1.87,1.19-2.84A62.12,62.12,0,0,0,224.22,126.6Z"/><path id="_Caminho_2" data-name="&lt;Caminho&gt;" class="cls-18" d="M228.19,131.9a7.62,7.62,0,0,1,.12,1.14c0,.38,0,.76,0,1.14a15,15,0,0,1-.31,2.26,15.49,15.49,0,0,1-.65,2.2,14.52,14.52,0,0,1-1,2.1,13.27,13.27,0,0,1-1.31,1.92,11.86,11.86,0,0,1-1.63,1.66c-.15.13-.3.25-.46.36l-.47.34-.49.31-.25.15-.26.13-.52.26-.53.22-.27.1-.27.08-.55.15c.56-.53,1.12-1,1.62-1.52l.19-.19.18-.2.37-.39c.23-.27.48-.53.7-.81.46-.54.87-1.1,1.27-1.68s.77-1.17,1.11-1.78a33.86,33.86,0,0,0,1.85-3.83C227.2,134.69,227.69,133.33,228.19,131.9Z"/></g></g></svg>