<svg xmlns="http://www.w3.org/2000/svg" viewBox="0 0 18.03 90"><defs><style>.cls-1{fill:#333;}</style></defs><title>seta_proximo</title><g id="Camada_2" data-name="Camada 2"><g id="Rodapé"><path class="cls-1" d="M7.46,90a.74.74,0,0,1-.74-.74V51.41a.74.74,0,0,1,1.48,0V89.26A.74.74,0,0,1,7.46,90Z"/><path class="cls-1" d="M7.46,39.34a.74.74,0,0,1-.74-.74V.74A.74.74,0,0,1,8.2.74V38.59A.74.74,0,0,1,7.46,39.34Z"/><path class="cls-1" d="M.74,56.52a.74.74,0,0,1-.4-1.36L15.94,45,.34,34.84a.74.74,0,1,1,.81-1.24L17.7,44.38a.74.74,0,0,1,0,1.24L1.15,56.4A.74.74,0,0,1,.74,56.52Z"/></g></g></svg>