<svg xmlns="http://www.w3.org/2000/svg" viewBox="0 0 14.1 70.36"><defs><style>.cls-1{fill:#a5a5a5;}</style></defs><title>seta_aguardo</title><g id="Camada_2" data-name="Camada 2"><g id="Rodapé"><path class="cls-1" d="M5.83,70.36a.58.58,0,0,1-.58-.58V40.19a.58.58,0,1,1,1.16,0V69.78A.58.58,0,0,1,5.83,70.36Z"/><path class="cls-1" d="M5.83,30.75a.58.58,0,0,1-.58-.58V.58a.58.58,0,0,1,1.16,0V30.17A.58.58,0,0,1,5.83,30.75Z"/><path class="cls-1" d="M.58,44.19a.58.58,0,0,1-.32-1.06l12.19-7.94L.26,27.24a.58.58,0,1,1,.63-1l12.94,8.43a.58.58,0,0,1,0,1L.9,44.09A.58.58,0,0,1,.58,44.19Z"/></g></g></svg>